/* XPM */
static char * uniconvw_xpm[] = {
"32 32 288 2",
"  	c None",
". 	c #D4D5D5",
"+ 	c #97A491",
"@ 	c #466234",
"# 	c #CED0CF",
"$ 	c #D1D2D2",
"% 	c #575858",
"& 	c #646464",
"* 	c #464646",
"= 	c #D7D8D8",
"- 	c #DEDFDF",
"; 	c #E4E5E5",
"> 	c #E5E6E6",
", 	c #C7CCC5",
"' 	c #668651",
") 	c #A7CE8D",
"! 	c #607850",
"~ 	c #DFE0E0",
"{ 	c #696969",
"] 	c #656565",
"^ 	c #585858",
"/ 	c #747474",
"( 	c #B3B4B4",
"_ 	c #E5E5E5",
": 	c #FCFCFC",
"< 	c #FFFFFF",
"[ 	c #F4F5F4",
"} 	c #597744",
"| 	c #A7D489",
"1 	c #8ACA60",
"2 	c #90B976",
"3 	c #8B9E7F",
"4 	c #F8F8F8",
"5 	c #6C6C6C",
"6 	c #484848",
"7 	c #333333",
"8 	c #727272",
"9 	c #D2D2D2",
"0 	c #E9E9E9",
"a 	c #D8D9D9",
"b 	c #FBFBFB",
"c 	c #5D784D",
"d 	c #A3CE86",
"e 	c #85C859",
"f 	c #7EC44F",
"g 	c #8CCA61",
"h 	c #7A9F61",
"i 	c #BAC4B4",
"j 	c #FCFEFE",
"k 	c #819675",
"l 	c #96BD7B",
"m 	c #89CA5F",
"n 	c #7DC44E",
"o 	c #7AC34A",
"p 	c #76C145",
"q 	c #8FCC66",
"r 	c #61834B",
"s 	c #DDE1DB",
"t 	c #6D6D6D",
"u 	c #474747",
"v 	c #D2D1D2",
"w 	c #DBDBDB",
"x 	c #FDFEFE",
"y 	c #B7C1B0",
"z 	c #7EA366",
"A 	c #90CD68",
"B 	c #7BC34B",
"C 	c #79C249",
"D 	c #73BF40",
"E 	c #6FBE3B",
"F 	c #90C969",
"G 	c #547340",
"H 	c #ECEDEB",
"I 	c #DEE2DC",
"J 	c #64844D",
"K 	c #99D174",
"L 	c #78C247",
"M 	c #77C146",
"N 	c #75C043",
"O 	c #70BE3C",
"P 	c #6CBC37",
"Q 	c #6ABB34",
"R 	c #8AC165",
"S 	c #5A7549",
"T 	c #6E6E6E",
"U 	c #E6E6E6",
"V 	c #F3F4F4",
"W 	c #557342",
"X 	c #9CCF7A",
"Y 	c #74C041",
"Z 	c #71BF3E",
"` 	c #69BB32",
" .	c #65B92D",
"..	c #81B35F",
"+.	c #3E5330",
"@.	c #5E784C",
"#.	c #96C675",
"$.	c #73C041",
"%.	c #6FBD3A",
"&.	c #6DBD38",
"*.	c #6BBC35",
"=.	c #68BA31",
"-.	c #62B728",
";.	c #5DB623",
">.	c #60B727",
",.	c #689549",
"'.	c #35422C",
").	c #849877",
"!.	c #89B66C",
"~.	c #76C043",
"{.	c #6BBC36",
"].	c #67BA2F",
"^.	c #65B92C",
"/.	c #5BB41F",
"(.	c #49AC07",
"_.	c #44AA00",
":.	c #66B92E",
"<.	c #507637",
"[.	c #2D3329",
"}.	c #A6B09F",
"|.	c #739B59",
"1.	c #7CC44D",
"2.	c #66BA2F",
"3.	c #67BA30",
"4.	c #63B82A",
"5.	c #60B726",
"6.	c #54B115",
"7.	c #45AB02",
"8.	c #73BE42",
"9.	c #395B23",
"0.	c #30322F",
"a.	c #BABEB8",
"b.	c #597C43",
"c.	c #8DCC64",
"d.	c #6ABB33",
"e.	c #6BBB35",
"f.	c #62B829",
"g.	c #5EB623",
"h.	c #50B011",
"i.	c #46AB03",
"j.	c #4FAF0F",
"k.	c #81C058",
"l.	c #2B4918",
"m.	c #323332",
"n.	c #355124",
"o.	c #668A4D",
"p.	c #739959",
"q.	c #749C59",
"r.	c #91C76F",
"s.	c #5EB624",
"t.	c #52B013",
"u.	c #55B217",
"v.	c #80B55D",
"w.	c #5F8A42",
"x.	c #5C873F",
"y.	c #5A863E",
"z.	c #406627",
"A.	c #233716",
"B.	c #C7C9C6",
"C.	c #D0D2CE",
"D.	c #E5E8E4",
"E.	c #E3E6E2",
"F.	c #A7B0A1",
"G.	c #7BAB5B",
"H.	c #5AB41E",
"I.	c #4DAE0C",
"J.	c #65874E",
"K.	c #656863",
"L.	c #3E413B",
"M.	c #2F322D",
"N.	c #313330",
"O.	c #BBC3B7",
"P.	c #79AA58",
"Q.	c #51B011",
"R.	c #717171",
"S.	c #444444",
"T.	c #76A854",
"U.	c #71A54E",
"V.	c #71A44D",
"W.	c #767676",
"X.	c #4F4F4F",
"Y.	c #343434",
"Z.	c #43A502",
"`.	c #429E05",
" +	c #429D05",
".+	c #51A41A",
"++	c #5D7C49",
"@+	c #797979",
"#+	c #545454",
"$+	c #3F3F3F",
"%+	c #BEBEBE",
"&+	c #CFCFCF",
"*+	c #C5C6C6",
"=+	c #3B691C",
"-+	c #565C52",
";+	c #6D7468",
">+	c #6F766B",
",+	c #70736F",
"'+	c #848484",
")+	c #595959",
"!+	c #4B4B4B",
"~+	c #363636",
"{+	c #7F7F7F",
"]+	c #707070",
"^+	c #515151",
"/+	c #44A801",
"(+	c #415534",
"_+	c #888888",
":+	c #525252",
"<+	c #505050",
"[+	c #4D4D4D",
"}+	c #414141",
"|+	c #6F6F6F",
"1+	c #626262",
"2+	c #C2C3C3",
"3+	c #535F4B",
"4+	c #7E7E7E",
"5+	c #535353",
"6+	c #4E4E4E",
"7+	c #454545",
"8+	c #555555",
"9+	c #B9B9B9",
"0+	c #408C0D",
"a+	c #6C7368",
"b+	c #737373",
"c+	c #575757",
"d+	c #3C3C3C",
"e+	c #757575",
"f+	c #A5A5A5",
"g+	c #72A54F",
"h+	c #457525",
"i+	c #838482",
"j+	c #5E5E5E",
"k+	c #5D5D5D",
"l+	c #5C5C5C",
"m+	c #5A5A5A",
"n+	c #4C4C4C",
"o+	c #494949",
"p+	c #777777",
"q+	c #FFFEFC",
"r+	c #444E3C",
"s+	c #898989",
"t+	c #686868",
"u+	c #636363",
"v+	c #606060",
"w+	c #5B5B5B",
"x+	c #64864D",
"y+	c #666666",
"z+	c #949494",
"A+	c #5F5F5F",
"B+	c #F0F0F0",
"C+	c #FEFEFE",
"D+	c #E0E0E0",
"E+	c #BBC2B0",
"F+	c #65874F",
"G+	c #E7E7E7",
"H+	c #909090",
"I+	c #6B6B6B",
"J+	c #676767",
"K+	c #7B7B7B",
"L+	c #BBC3B5",
"M+	c #C6C6C6",
"N+	c #828282",
"O+	c #878787",
"P+	c #B7B7B7",
"Q+	c #FDFDFD",
"R+	c #EBECEC",
"S+	c #72A650",
"T+	c #979797",
"U+	c #939393",
"V+	c #8C8C8C",
"W+	c #8D8D8D",
"X+	c #D9DADA",
"Y+	c #EBEBEB",
"Z+	c #9C9C9C",
"`+	c #7A7A7A",
" @	c #EEEFEF",
".@	c #DCDDDD",
"+@	c #A1A99D",
"@@	c #71BE3D",
"#@	c #63854C",
"$@	c #A8A8A8",
"%@	c #DDDEDE",
"&@	c #2E5316",
"*@	c #54753F",
"=@	c #456132",
"-@	c #BFC0C0",
";@	c #C1C2C2",
"              . . + @ # . . . $ % & & & & & & & & & *           ",
"        = - ; > , ' ) ! > > > ~ { ] ^ ^ ^ ^ ^ ^ ^ ^ / (         ",
"    = _ : < < [ } | 1 2 3 < < 4 5 6 7 7 7 7 7 7 7 7 8 9 0 a     ",
"    _ b < < < c d e f g h i < 4 5 6 7 7 7 7 7 7 7 7 8 9 : 0     ",
"  = : < < j k l m n o p q r s 4 t u 7 7 7 7 7 7 7 7 8 v < < w   ",
"  - < < x y z A B C p D E F G H t u 7 7 7 7 7 7 7 7 8 9 < < ;   ",
"  _ < < I J K L M N D O P Q R S T u 7 7 7 7 7 7 7 7 8 9 < < U . ",
". U < V W X N Y D Z E P `  .` ..+.* 7 7 7 7 7 7 7 7 8 9 < < U . ",
". U < @.#.$.O E %.&.*.=. .-.;.>.,.'.7 7 7 7 7 7 7 7 8 9 < < U . ",
". U ).!.~.*.{.{.Q ` ].^.-./.(._.:.<.[.7 7 7 7 7 7 7 8 9 < < U . ",
". }.|.1.:.2.3.].:. .4.5.6.7._._._.8.9.0.7 7 7 7 7 7 8 9 < < U . ",
"a.b.c.d.e.*.4.4.f.g.h.i._._.i.j.j.h.k.l.m.7 7 7 7 7 8 9 < < U . ",
"n.o.p.|.q.r.s.g.t.7._._._._.u.v.w.x.y.z.A.7 7 7 7 7 8 9 < < U . ",
"B.C.D.E.F.G.H.I._._._._._._.u.J.K.L.M.M.N.7 7 7 7 7 8 9 < < U . ",
". U < < O.P.Q._._._._._._._.u.J.R.S.7 7 7 7 7 7 7 7 8 9 < < U . ",
". U < < O.T.7._._._._._._._.u.J.8 S.7 7 7 7 7 7 7 7 8 9 < < U . ",
". U < < O.U._._._._._._._._.u.J./ * 7 7 7 7 7 7 7 7 8 9 < < U . ",
". U < < O.V._._._._._._._._.u.J.W.X.Y.7 7 7 7 7 7 7 8 9 < < U . ",
". U < < O.V._._._._._.Z.`. +.+++@+#+$+7 7 7 7 7 7 7 8 %+_ _ &+*+",
". U < < O.U._._._._._.=+-+;+>+,+'+)+!+S.~+7 7 7 7 7 {+]+]+]+] ^+",
". U < < O.U._._._._._./+(+_+^ )+)+:+<+X.[+}+~+7 7 7 $+$+$+|+1+2+",
". U < < O.U._._._._._._.`.3+4+5+#+#+#+#+:+^+6+7+~+7 7 7 8+T 9+. ",
". U < < O.U._._._._._._._.0+a+b+^ )+)+)+c+8+5+<+!+d+7 * e+f+U . ",
". U < < O.g+_._._._._._._._.h+i+e+j+j+k+l+m+c+#+<+n+o+p+{+< U . ",
". U < q+O.g+_._._._._._._._.u.r+s+t+u+1+v+j+w+^ #+:+4+{ b < U . ",
". U < < O.g+_._._._._._._._.u.x+y+z+t+y+] 1+A+l+^ {+] B+C+< U . ",
"  D+< < E+g+_._._._._._._._.u.F+G+|+H+I+{ J+& A+K+T w C+< < >   ",
"  a < < L+g+_._._._._._._._.u.F+< M+N+O+T I+t+W.4+P+Q+: < < -   ",
"    R+Q+O.S+_._._._._._._._.u.F+< < T+U+4+|+/ V+W+Q+< < C+B+    ",
"    X+Y+O.S+_._._._._._._._.u.F+< < < / Z+`+T+R.< < < <  @.@    ",
"        +@g+:.:.:.:.:.:.:.:.@@#@> > > - ] $@{ - > > ; %@        ",
"          &@*@*@*@*@*@*@*@*@*@=@. . . . -@^+;@. . .             "};
